<svg id="Ebene_9" data-name="Ebene 9" xmlns="http://www.w3.org/2000/svg" width="13" height="13" viewBox="0 0 13 13"><defs><style>.cls-1{fill:#999;}</style></defs><title>Icons</title><path class="cls-1" d="M10.62,10.46h-.15V6.7a3.92,3.92,0,0,0-7.84,0v3.76H2.48A1.34,1.34,0,0,0,1.14,11.8V13H12V11.8A1.35,1.35,0,0,0,10.62,10.46ZM3.41,6.7a3.15,3.15,0,1,1,6.29,0v3.76H3.41Zm7.78,5.53H1.91V11.8a.58.58,0,0,1,.57-.57h8.14a.57.57,0,0,1,.57.57Z"/><path class="cls-1" d="M6.55,3.93v.78a2,2,0,0,1,2,2h.77A2.76,2.76,0,0,0,6.55,3.93Z"/><rect class="cls-1" x="6.17" width="0.77" height="2.18"/><rect class="cls-1" x="9.29" y="2.29" width="2.18" height="0.77" transform="translate(1.15 8.12) rotate(-45)"/><rect class="cls-1" x="2.34" y="1.59" width="0.77" height="2.18" transform="translate(-1.09 2.71) rotate(-45)"/><rect class="cls-1" x="4.1" y="0.41" width="0.77" height="2.18" transform="translate(-0.23 1.83) rotate(-22.5)"/><rect class="cls-1" x="7.54" y="1.11" width="2.18" height="0.77" transform="translate(3.94 8.89) rotate(-67.5)"/><rect class="cls-1" x="10.47" y="4.04" width="2.18" height="0.77" transform="translate(-0.82 4.76) rotate(-22.5)"/><rect class="cls-1" x="1.17" y="3.34" width="0.77" height="2.18" transform="translate(-3.13 4.17) rotate(-67.5)"/></svg>