<svg id="Ebene_1" data-name="Ebene 1" xmlns="http://www.w3.org/2000/svg" width="16" height="16" viewBox="0 0 16 16"><defs><style>.cls-1{fill:#bf2c38;}.cls-1,.cls-2{stroke:#000;stroke-miterlimit:10;stroke-width:0.25px;}</style></defs><title>Einheittypen</title><polygon class="cls-1" points="14.95 7.95 7.95 14.95 0.94 7.95 5.12 3.77 10.78 3.77 14.95 7.95"/><polygon class="cls-2" points="10.78 3.77 5.12 3.77 7.95 0.94 10.78 3.77"/><path d="M8.72,6.48l.91,3.35c0,.06,0,.08-.07.08H9S9,9.89,9,9.83L8.64,8.7H7.15L6.83,9.83c0,.06,0,.08-.07.08H6.22s-.07,0-.06-.08L7.1,6.48c.15-.55.25-.61.79-.61S8.57,5.93,8.72,6.48Zm-1,.18-.4,1.47H8.49L8.1,6.66c0-.19-.06-.22-.21-.22S7.76,6.47,7.71,6.66Z"/></svg>