<svg id="Ebene_1" data-name="Ebene 1" xmlns="http://www.w3.org/2000/svg" width="16" height="16" viewBox="0 0 16 16"><defs><style>.cls-1{fill:#bf2c38;}.cls-2{fill:#ed1c24;}.cls-3{fill:#ff0;}.cls-4{fill:#c1272d;}</style></defs><title>Einheiten</title><path class="cls-1" d="M6,.77a3.09,3.09,0,0,1,4.11,0V4H6.92L5.55,2.37Z"/><path class="cls-2" d="M7.61,3.47V15H4.18V1.47H5.89A2.39,2.39,0,0,0,7.61,3.47Z"/><path class="cls-2" d="M14.93,10.38c0,.34,0,.65,0,.92l-.06,1.12v0h-2.2c0-.4,0-.78,0-1.14s0-.63,0-.92c0-1.48-.1-2.59-.17-3.43,0-.35-.07-.66-.1-.92-.19-1.39-.39-1.6-.39-1.6V15H8.52V3.47a2.37,2.37,0,0,0,1.72-2h1.49c1.67.17,2.59,2.27,2.94,4.57v0l.1.85V7l.12,1.89v.05C14.93,9.42,14.93,9.93,14.93,10.38Z"/><rect class="cls-3" x="4.63" y="7.63" width="2.97" height="1.6"/><rect class="cls-3" x="8.52" y="7.63" width="2.75" height="1.6"/><path class="cls-3" d="M14.79,7H12.45c0-.35-.07-.66-.1-.92h2.32v0l.1.85Z"/><path class="cls-3" d="M14.93,10.38c0,.34,0,.65,0,.92H12.63c0-.32,0-.63,0-.92Z"/><rect class="cls-3" x="4.63" y="10.84" width="2.97" height="1.6"/><rect class="cls-3" x="8.52" y="10.84" width="2.75" height="1.6"/><path class="cls-3" d="M5.57,1.46,6,.77,7.61,2.6V3.92A3.83,3.83,0,0,1,5.57,1.46Z"/><path class="cls-3" d="M10.56,1.46,10.12.77,8.52,2.6V3.92A3.83,3.83,0,0,0,10.56,1.46Z"/><rect x="7.15" y="5.8" width="1.83" height="0.46"/><rect x="7.15" y="4.43" width="1.83" height="0.46"/><rect x="7.15" y="7.18" width="1.83" height="0.46"/><rect x="7.15" y="9.24" width="1.83" height="0.46"/><rect x="7.15" y="10.38" width="1.83" height="0.46"/><rect x="7.15" y="12.67" width="1.83" height="0.46"/><rect x="7.15" y="13.58" width="1.83" height="0.46"/><path class="cls-4" d="M4.18,1.47v3S4,4.64,3.78,6c0,.26-.07.57-.1.92-.07.84-.14,2-.17,3.43,0,.29,0,.6,0,.92s0,.74,0,1.14H1.2s0-.44-.06-1.14c0-.27,0-.58,0-.92A28,28,0,0,1,1.26,7v0l.11-.85V6C1.72,3.73,2.5,1.64,4.18,1.47Z"/><path class="cls-3" d="M3.78,6c0,.26-.07.57-.1.92H1.26v0l.11-.85V6Z"/><path class="cls-3" d="M3.51,10.38v.92H1.14c0-.27,0-.58,0-.92Z"/><path class="cls-4" d="M14.93,10.38c0,.34,0,.65,0,.92,0,.61-.06,1-.06,1.12v0h-2.2c0-.4,0-.78,0-1.14s0-.63,0-.92c0-1.48-.1-2.59-.17-3.43,0-.35-.07-.66-.1-.92-.19-1.39-.39-1.6-.39-1.6V4.6a1.09,1.09,0,0,0-.09-.17l-.14-3c1.67.17,2.59,2.27,2.94,4.57v0l.1.85V7c.06.64.1,1.28.12,1.89v.05C14.93,9.42,14.93,9.93,14.93,10.38Z"/><path class="cls-3" d="M14.79,7H12.45c0-.35-.07-.66-.1-.92h2.32v0l.1.85Z"/><path class="cls-3" d="M14.93,10.38c0,.34,0,.65,0,.92H12.63c0-.32,0-.63,0-.92Z"/><rect class="cls-4" x="4.18" y="14.5" width="3.43" height="0.46"/><rect class="cls-4" x="8.52" y="14.5" width="3.43" height="0.46"/></svg>