<svg id="Ebene_1" data-name="Ebene 1" xmlns="http://www.w3.org/2000/svg" width="16" height="16" viewBox="0 0 16 16"><defs><style>.cls-1{fill:#f7931e;}.cls-2{fill:#bf2c38;}.cls-3{fill:#fff;}.cls-4,.cls-5{fill:#e6e6e6;}.cls-4{stroke:#cc5660;stroke-miterlimit:10;stroke-width:0.25px;}.cls-6{fill:none;}</style></defs><title>Fahrzeuge</title><rect class="cls-1" x="3.7" y="4.04" width="12.41" height="0.87" transform="translate(2.05 -3.04) rotate(19.41)"/><polygon class="cls-2" points="1.57 5.72 0.2 8 -0.06 8.43 -0.06 12.55 16.06 12.55 16.06 6.96 14.82 6.96 13.58 8.62 6.76 8.62 6.76 5.31 1.81 5.31 1.57 5.72"/><circle cx="2.83" cy="12.55" r="1.45"/><circle cx="13.17" cy="12.55" r="1.45"/><rect class="cls-3" x="-0.06" y="9.65" width="16.13" height="0.62"/><polygon class="cls-4" points="4.45 5.72 4.45 8 1.2 8 2.57 5.72 4.45 5.72"/><rect class="cls-4" x="4.86" y="5.72" width="1.45" height="2.27"/><circle class="cls-5" cx="2.83" cy="12.55" r="0.62"/><circle class="cls-5" cx="13.17" cy="12.55" r="0.62"/><line class="cls-6" x1="1.81" y1="5.31" x2="1.57" y2="5.72"/></svg>