<svg id="Ebene_1" data-name="Ebene 1" xmlns="http://www.w3.org/2000/svg" width="16" height="16" viewBox="0 0 16 16"><defs><style>.cls-1{fill:#bf2c38;stroke:#1a1a1a;stroke-miterlimit:10;stroke-width:0.25px;}</style></defs><title>Einsatzkategorien</title><path class="cls-1" d="M10,9.7v0C8.64,11.3,6.71,13,5.45,12L3.59,14.33,5,15.47a2.18,2.18,0,0,0,2.59,0,18.61,18.61,0,0,0,2.53-2.34c.56-.59,1.15-1.25,1.76-2S13,9.75,13.42,9.09a20.62,20.62,0,0,0,1.75-3,2.19,2.19,0,0,0-.6-2.52L13.15,2.45,11.3,4.75C12.56,5.77,11.27,8,10,9.7Z"/><rect class="cls-1" x="9.31" y="1.94" width="2.96" height="1.14" transform="matrix(0.63, -0.78, 0.78, 0.63, 2.07, 9.34)"/><rect class="cls-1" x="1.76" y="11.52" width="2.96" height="1.14" transform="translate(-8.21 7.03) rotate(-51.18)"/><polygon class="cls-1" points="7.69 3.94 7.69 5.16 5.18 5.16 5.18 7.67 3.96 7.67 3.96 5.16 1.45 5.16 1.45 3.94 3.96 3.94 3.96 1.43 5.18 1.43 5.18 3.94 7.69 3.94"/></svg>