<svg id="Ebene_1" data-name="Ebene 1" xmlns="http://www.w3.org/2000/svg" width="16" height="16" viewBox="0 0 16 16"><defs><style>.cls-1{fill:#bf2c38;stroke:#000;stroke-miterlimit:10;stroke-width:0.25px;}.cls-2{fill:#fff;}</style></defs><title>Einsätze</title><path class="cls-1" d="M12.16,8.21h0v4.57h-8V8.21h0a1.7,1.7,0,0,1,0-.22A3.86,3.86,0,0,1,8,4.28h.12a3.87,3.87,0,0,1,4,3.71C12.17,8.06,12.16,8.13,12.16,8.21Z"/><path class="cls-2" d="M8,13V5.82A.9.9,0,0,0,7.52,5a1,1,0,0,0-.91,0A3.32,3.32,0,0,0,4.72,7.92V13Z"/><rect class="cls-1" x="3.42" y="14.21" width="9.46" height="0.95"/><line class="cls-1" x1="8.07" y1="0.18" x2="8.07" y2="2.31"/><rect class="cls-1" x="7.69" y="0.18" width="0.76" height="2.14"/><line class="cls-1" x1="15.87" y1="5" x2="13.86" y2="5.73"/><rect class="cls-1" x="13.8" y="4.98" width="2.14" height="0.76" transform="translate(-0.94 5.35) rotate(-19.79)"/><line class="cls-1" x1="13.71" y1="1.49" x2="12.36" y2="3.14"/><rect class="cls-1" x="11.97" y="1.93" width="2.14" height="0.76" transform="translate(2.99 10.93) rotate(-50.69)"/><line class="cls-1" x1="0.27" y1="5" x2="2.28" y2="5.73"/><rect class="cls-1" x="0.89" y="4.3" width="0.76" height="2.14" transform="translate(-4.2 4.75) rotate(-70.21)"/><line class="cls-1" x1="2.43" y1="1.49" x2="3.78" y2="3.14"/><rect class="cls-1" x="2.72" y="1.25" width="0.76" height="2.14" transform="translate(-0.76 2.49) rotate(-39.31)"/></svg>