<svg id="Ebene_1" data-name="Ebene 1" xmlns="http://www.w3.org/2000/svg" width="16" height="16" viewBox="0 0 16 16"><defs><style>.cls-1,.cls-3,.cls-4{fill:#fff;}.cls-1,.cls-2,.cls-3{stroke:#000;stroke-miterlimit:10;}.cls-1{stroke-width:0.5px;}.cls-2{fill:#bf2c38;}.cls-2,.cls-3{stroke-width:0.25px;}</style></defs><title>fahrzeugtypen_2</title><circle class="cls-1" cx="3.11" cy="13.11" r="0.73"/><circle class="cls-1" cx="13.33" cy="13.11" r="0.73"/><path class="cls-2" d="M1.24,10.9V4.24h.44l.06.16C2,5,4.52,5.7,7.9,5.7S13.8,5,14.05,4.4l.06-.16h.44V10.9Z"/><path class="cls-3" d="M14.3,4.49v6.16H1.49V4.49h0C1.84,5.31,4.57,6,7.9,6s6-.64,6.37-1.46h0M14.79,4h-.85l-.12.31c0,.1-.43.44-1.72.74a19.84,19.84,0,0,1-4.2.41,19.87,19.87,0,0,1-4.21-.41C2.4,4.75,2,4.41,2,4.31L1.85,4H1v7.14H14.79V4Z"/><rect class="cls-4" x="1.32" y="7.33" width="13.3" height="0.49"/><polygon class="cls-4" points="14.38 10.9 11.04 7.57 14.38 4.23 14.72 4.58 11.73 7.57 14.72 10.56 14.38 10.9"/></svg>